<mxfile host="app.diagrams.net" modified="2020-11-22T03:11:13.750Z" agent="5.0 (Windows NT 10.0; Win64; x64) AppleWebKit/537.36 (KHTML, like Gecko) Chrome/87.0.4280.66 Safari/537.36" etag="hIt4dDkZLA9b_xXUvq9V" version="13.10.0" type="github">
  <diagram id="C5RBs43oDa-KdzZeNtuy" name="Page-1">
    <mxGraphModel dx="862" dy="1594" grid="1" gridSize="10" guides="1" tooltips="1" connect="1" arrows="1" fold="1" page="1" pageScale="1" pageWidth="827" pageHeight="1169" math="0" shadow="0">
      <root>
        <mxCell id="WIyWlLk6GJQsqaUBKTNV-0" />
        <mxCell id="WIyWlLk6GJQsqaUBKTNV-1" parent="WIyWlLk6GJQsqaUBKTNV-0" />
        <mxCell id="Qog-aHpWozifL9qBpiBN-4" value="" style="edgeStyle=orthogonalEdgeStyle;rounded=0;orthogonalLoop=1;jettySize=auto;html=1;" edge="1" parent="WIyWlLk6GJQsqaUBKTNV-1" source="Qog-aHpWozifL9qBpiBN-0" target="Qog-aHpWozifL9qBpiBN-3">
          <mxGeometry relative="1" as="geometry" />
        </mxCell>
        <mxCell id="Qog-aHpWozifL9qBpiBN-0" value="Start" style="ellipse;whiteSpace=wrap;html=1;" vertex="1" parent="WIyWlLk6GJQsqaUBKTNV-1">
          <mxGeometry x="114" y="-1130" width="120" height="80" as="geometry" />
        </mxCell>
        <mxCell id="Qog-aHpWozifL9qBpiBN-8" value="" style="edgeStyle=orthogonalEdgeStyle;rounded=0;orthogonalLoop=1;jettySize=auto;html=1;" edge="1" parent="WIyWlLk6GJQsqaUBKTNV-1" source="Qog-aHpWozifL9qBpiBN-3" target="Qog-aHpWozifL9qBpiBN-7">
          <mxGeometry relative="1" as="geometry" />
        </mxCell>
        <mxCell id="Qog-aHpWozifL9qBpiBN-3" value="int sum = 0" style="whiteSpace=wrap;html=1;" vertex="1" parent="WIyWlLk6GJQsqaUBKTNV-1">
          <mxGeometry x="101.5" y="-1010" width="145" height="60" as="geometry" />
        </mxCell>
        <mxCell id="Qog-aHpWozifL9qBpiBN-10" value="" style="edgeStyle=orthogonalEdgeStyle;rounded=0;orthogonalLoop=1;jettySize=auto;html=1;" edge="1" parent="WIyWlLk6GJQsqaUBKTNV-1" source="Qog-aHpWozifL9qBpiBN-7" target="Qog-aHpWozifL9qBpiBN-9">
          <mxGeometry relative="1" as="geometry" />
        </mxCell>
        <mxCell id="Qog-aHpWozifL9qBpiBN-7" value="Input:&lt;br&gt;int userNum" style="shape=parallelogram;perimeter=parallelogramPerimeter;whiteSpace=wrap;html=1;fixedSize=1;" vertex="1" parent="WIyWlLk6GJQsqaUBKTNV-1">
          <mxGeometry x="114" y="-910" width="120" height="60" as="geometry" />
        </mxCell>
        <mxCell id="Qog-aHpWozifL9qBpiBN-12" value="" style="edgeStyle=orthogonalEdgeStyle;rounded=0;orthogonalLoop=1;jettySize=auto;html=1;" edge="1" parent="WIyWlLk6GJQsqaUBKTNV-1" source="Qog-aHpWozifL9qBpiBN-9" target="Qog-aHpWozifL9qBpiBN-11">
          <mxGeometry relative="1" as="geometry" />
        </mxCell>
        <mxCell id="Qog-aHpWozifL9qBpiBN-25" value="" style="edgeStyle=orthogonalEdgeStyle;rounded=0;orthogonalLoop=1;jettySize=auto;html=1;" edge="1" parent="WIyWlLk6GJQsqaUBKTNV-1" source="Qog-aHpWozifL9qBpiBN-9" target="Qog-aHpWozifL9qBpiBN-24">
          <mxGeometry relative="1" as="geometry" />
        </mxCell>
        <mxCell id="Qog-aHpWozifL9qBpiBN-9" value="While userNum != 0" style="rhombus;whiteSpace=wrap;html=1;" vertex="1" parent="WIyWlLk6GJQsqaUBKTNV-1">
          <mxGeometry x="95.75" y="-810" width="156.5" height="90" as="geometry" />
        </mxCell>
        <mxCell id="Qog-aHpWozifL9qBpiBN-17" value="" style="edgeStyle=orthogonalEdgeStyle;rounded=0;orthogonalLoop=1;jettySize=auto;html=1;" edge="1" parent="WIyWlLk6GJQsqaUBKTNV-1" source="Qog-aHpWozifL9qBpiBN-11" target="Qog-aHpWozifL9qBpiBN-16">
          <mxGeometry relative="1" as="geometry" />
        </mxCell>
        <mxCell id="Qog-aHpWozifL9qBpiBN-11" value="sum = sum + userNum" style="whiteSpace=wrap;html=1;" vertex="1" parent="WIyWlLk6GJQsqaUBKTNV-1">
          <mxGeometry x="300" y="-795" width="212.75" height="60" as="geometry" />
        </mxCell>
        <mxCell id="Qog-aHpWozifL9qBpiBN-18" style="edgeStyle=orthogonalEdgeStyle;rounded=0;orthogonalLoop=1;jettySize=auto;html=1;exitX=0.5;exitY=0;exitDx=0;exitDy=0;" edge="1" parent="WIyWlLk6GJQsqaUBKTNV-1" source="Qog-aHpWozifL9qBpiBN-16">
          <mxGeometry relative="1" as="geometry">
            <mxPoint x="170" y="-830" as="targetPoint" />
            <Array as="points">
              <mxPoint x="620" y="-830" />
            </Array>
          </mxGeometry>
        </mxCell>
        <mxCell id="Qog-aHpWozifL9qBpiBN-16" value="Input:&lt;br&gt;int userNum" style="shape=parallelogram;perimeter=parallelogramPerimeter;whiteSpace=wrap;html=1;fixedSize=1;" vertex="1" parent="WIyWlLk6GJQsqaUBKTNV-1">
          <mxGeometry x="559.995" y="-795" width="120" height="60" as="geometry" />
        </mxCell>
        <mxCell id="Qog-aHpWozifL9qBpiBN-19" value="Yes" style="text;html=1;align=center;verticalAlign=middle;resizable=0;points=[];autosize=1;" vertex="1" parent="WIyWlLk6GJQsqaUBKTNV-1">
          <mxGeometry x="246.5" y="-790" width="40" height="20" as="geometry" />
        </mxCell>
        <mxCell id="Qog-aHpWozifL9qBpiBN-27" value="" style="edgeStyle=orthogonalEdgeStyle;rounded=0;orthogonalLoop=1;jettySize=auto;html=1;" edge="1" parent="WIyWlLk6GJQsqaUBKTNV-1" source="Qog-aHpWozifL9qBpiBN-24" target="Qog-aHpWozifL9qBpiBN-26">
          <mxGeometry relative="1" as="geometry" />
        </mxCell>
        <mxCell id="Qog-aHpWozifL9qBpiBN-24" value="Output:&lt;br&gt;sum" style="shape=parallelogram;perimeter=parallelogramPerimeter;whiteSpace=wrap;html=1;fixedSize=1;" vertex="1" parent="WIyWlLk6GJQsqaUBKTNV-1">
          <mxGeometry x="114" y="-670" width="120" height="60" as="geometry" />
        </mxCell>
        <mxCell id="Qog-aHpWozifL9qBpiBN-26" value="End" style="ellipse;whiteSpace=wrap;html=1;" vertex="1" parent="WIyWlLk6GJQsqaUBKTNV-1">
          <mxGeometry x="114" y="-560" width="120" height="80" as="geometry" />
        </mxCell>
        <mxCell id="Qog-aHpWozifL9qBpiBN-28" value="No" style="text;html=1;align=center;verticalAlign=middle;resizable=0;points=[];autosize=1;" vertex="1" parent="WIyWlLk6GJQsqaUBKTNV-1">
          <mxGeometry x="140" y="-720" width="30" height="20" as="geometry" />
        </mxCell>
      </root>
    </mxGraphModel>
  </diagram>
</mxfile>
